# xmcd
#
# Track frame offsets:
#	150
#	17760
#	33710
#	50484
#	68105
#	83713
#	104890
#	117463
#	141447
#	163112
#	177859
#	200801
#	223438
# Disc length: 3343 seconds
# Revision: 1
# Processed by: cddbd v1.4PL0 Copyright (c) Steve Scherf et al.
#
# Submitted via: libkcddb 0.10
#
DISCID=d10d0d0d
DTITLE=The Don Campbell Band - The Mashed Potato Swing
DYEAR=1900
DGENRE=
TTITLE0=The Mshed Potato Swing
TTITLE1=Heartbroke Woman
TTITLE2=Say Goodbye To Heartbrake
TTITLE3=Cupid On The Prowl
TTITLE4=High Plains
TTITLE5=The Angel And The Devil
TTITLE6=World Of Pain
TTITLE7=Veteran's Day
TTITLE8=Goodnight Kiss
TTITLE9=Your Kind Of Man
TTITLE10=Mary Ellen
TTITLE11=Can't You Hear My Heart Callin'
TTITLE12=Honky Cat
EXTD=
EXTT0=
EXTT1=
EXTT2=
EXTT3=
EXTT4=
EXTT5=
EXTT6=
EXTT7=
EXTT8=
EXTT9=
EXTT10=
EXTT11=
EXTT12=
PLAYORDER=
